{
	"asset":{
		"generator":"Khronos glTF Blender I/O v4.0.44",
		"version":"2.0"
	},
	"scene":0,
	"scenes":[
		{
			"name":"Scene",
			"nodes":[
				0,
				1,
				2,
				3
			]
		}
	],
	"nodes":[
		{
			"mesh":0,
			"name":"mona_lisa.002",
			"rotation":[
				-0.0004461977514438331,
				-0.9999890327453613,
				-0.004676898010075092,
				0.0001433381112292409
			],
			"scale":[
				1.208423137664795,
				1.896973729133606,
				1.8969738483428955
			],
			"translation":[
				-0.5299843549728394,
				0.07023417949676514,
				0.8845760822296143
			]
		},
		{
			"mesh":1,
			"name":"mona_lisa.000",
			"rotation":[
				0.004676898010075092,
				0.0001435008889529854,
				-0.0004462283104658127,
				0.9999890327453613
			],
			"scale":[
				1.208423137664795,
				1.896973729133606,
				1.8969738483428955
			],
			"translation":[
				-0.5304833650588989,
				0.08670850098133087,
				-0.8765816688537598
			]
		},
		{
			"mesh":2,
			"name":"mona_lisa.001",
			"rotation":[
				0.00362257263623178,
				0.7072004079818726,
				0.0029915524646639824,
				0.7069975137710571
			],
			"scale":[
				1.896973967552185,
				1.896973967552185,
				1.896973967552185
			],
			"translation":[
				-1.1356536149978638,
				0.07903313636779785,
				0.0017876923084259033
			]
		},
		{
			"mesh":3,
			"name":"mona_lisa.026",
			"rotation":[
				0.0029915564227849245,
				-0.7069972157478333,
				-0.0036226212978363037,
				0.7072007060050964
			],
			"scale":[
				1.896973967552185,
				1.896973967552185,
				1.896973967552185
			],
			"translation":[
				0.009803295135498047,
				0.10312499105930328,
				-0.49118876457214355
			]
		}
	],
	"materials":[
		{
			"doubleSided":true,
			"name":"Material.002",
			"pbrMetallicRoughness":{}
		}
	],
	"meshes":[
		{
			"name":"mona_lisa.174",
			"primitives":[
				{
					"attributes":{
						"POSITION":0,
						"NORMAL":1,
						"TEXCOORD_0":2
					},
					"indices":3,
					"material":0
				}
			]
		},
		{
			"name":"mona_lisa.173",
			"primitives":[
				{
					"attributes":{
						"POSITION":4,
						"NORMAL":5,
						"TEXCOORD_0":6
					},
					"indices":3,
					"material":0
				}
			]
		},
		{
			"name":"mona_lisa.170",
			"primitives":[
				{
					"attributes":{
						"POSITION":7,
						"NORMAL":8,
						"TEXCOORD_0":9
					},
					"indices":10,
					"material":0
				}
			]
		},
		{
			"name":"mona_lisa.026",
			"primitives":[
				{
					"attributes":{
						"POSITION":11,
						"NORMAL":12,
						"TEXCOORD_0":13
					},
					"indices":14,
					"material":0
				}
			]
		}
	],
	"accessors":[
		{
			"bufferView":0,
			"componentType":5126,
			"count":18336,
			"max":[
				0.5567346811294556,
				0.015972616150975227,
				0.08661381155252457
			],
			"min":[
				-0.5557416081428528,
				-0.03327922523021698,
				-0.03139173611998558
			],
			"type":"VEC3"
		},
		{
			"bufferView":1,
			"componentType":5126,
			"count":18336,
			"type":"VEC3"
		},
		{
			"bufferView":2,
			"componentType":5126,
			"count":18336,
			"type":"VEC2"
		},
		{
			"bufferView":3,
			"componentType":5123,
			"count":35148,
			"type":"SCALAR"
		},
		{
			"bufferView":4,
			"componentType":5126,
			"count":18336,
			"max":[
				0.5567346811294556,
				0.015972616150975227,
				0.08661381155252457
			],
			"min":[
				-0.5557416081428528,
				-0.03327922523021698,
				-0.03139173611998558
			],
			"type":"VEC3"
		},
		{
			"bufferView":5,
			"componentType":5126,
			"count":18336,
			"type":"VEC3"
		},
		{
			"bufferView":6,
			"componentType":5126,
			"count":18336,
			"type":"VEC2"
		},
		{
			"bufferView":7,
			"componentType":5126,
			"count":18358,
			"max":[
				0.4957934319972992,
				0.015972614288330078,
				0.08157733082771301
			],
			"min":[
				-0.4949091076850891,
				-0.03327922523021698,
				-0.03642823174595833
			],
			"type":"VEC3"
		},
		{
			"bufferView":8,
			"componentType":5126,
			"count":18358,
			"type":"VEC3"
		},
		{
			"bufferView":9,
			"componentType":5126,
			"count":18358,
			"type":"VEC2"
		},
		{
			"bufferView":10,
			"componentType":5123,
			"count":35148,
			"type":"SCALAR"
		},
		{
			"bufferView":11,
			"componentType":5126,
			"count":18331,
			"max":[
				0.7556049823760986,
				0.005164117552340031,
				0.045071884989738464
			],
			"min":[
				-0.23509757220745087,
				-0.0440877228975296,
				-0.07293367385864258
			],
			"type":"VEC3"
		},
		{
			"bufferView":12,
			"componentType":5126,
			"count":18331,
			"type":"VEC3"
		},
		{
			"bufferView":13,
			"componentType":5126,
			"count":18331,
			"type":"VEC2"
		},
		{
			"bufferView":14,
			"componentType":5123,
			"count":35148,
			"type":"SCALAR"
		}
	],
	"bufferViews":[
		{
			"buffer":0,
			"byteLength":220032,
			"byteOffset":0,
			"target":34962
		},
		{
			"buffer":0,
			"byteLength":220032,
			"byteOffset":220032,
			"target":34962
		},
		{
			"buffer":0,
			"byteLength":146688,
			"byteOffset":440064,
			"target":34962
		},
		{
			"buffer":0,
			"byteLength":70296,
			"byteOffset":586752,
			"target":34963
		},
		{
			"buffer":0,
			"byteLength":220032,
			"byteOffset":657048,
			"target":34962
		},
		{
			"buffer":0,
			"byteLength":220032,
			"byteOffset":877080,
			"target":34962
		},
		{
			"buffer":0,
			"byteLength":146688,
			"byteOffset":1097112,
			"target":34962
		},
		{
			"buffer":0,
			"byteLength":220296,
			"byteOffset":1243800,
			"target":34962
		},
		{
			"buffer":0,
			"byteLength":220296,
			"byteOffset":1464096,
			"target":34962
		},
		{
			"buffer":0,
			"byteLength":146864,
			"byteOffset":1684392,
			"target":34962
		},
		{
			"buffer":0,
			"byteLength":70296,
			"byteOffset":1831256,
			"target":34963
		},
		{
			"buffer":0,
			"byteLength":219972,
			"byteOffset":1901552,
			"target":34962
		},
		{
			"buffer":0,
			"byteLength":219972,
			"byteOffset":2121524,
			"target":34962
		},
		{
			"buffer":0,
			"byteLength":146648,
			"byteOffset":2341496,
			"target":34962
		},
		{
			"buffer":0,
			"byteLength":70296,
			"byteOffset":2488144,
			"target":34963
		}
	],
	"buffers":[
		{
			"byteLength":2558440,
			"uri":"cadre.bin"
		}
	]
}
